<svg xmlns="http://www.w3.org/2000/svg" viewBox="0 0 64 64" aria-hidden="true">
  <g fill="none" stroke="#fff8f1" stroke-linecap="round" stroke-linejoin="round" stroke-width="4">
    <rect x="14" y="10" width="36" height="44" rx="8" />
    <path d="M23 28c2-6 6-9 9-9s7 3 9 9" />
    <path d="M23 28c0 6 4 10 9 10s9-4 9-10" />
    <path d="M24 41c2 3 5 5 8 5s6-2 8-5" />
    <path d="M28 33c1 1 2 2 4 2s3-1 4-2" />
    <circle cx="26" cy="24" r="1.5" fill="#fff8f1" stroke="none" />
    <circle cx="32" cy="19" r="1.5" fill="#fff8f1" stroke="none" />
    <circle cx="38" cy="24" r="1.5" fill="#fff8f1" stroke="none" />
    <circle cx="28" cy="30" r="1.5" fill="#fff8f1" stroke="none" />
    <circle cx="36" cy="30" r="1.5" fill="#fff8f1" stroke="none" />
  </g>
</svg>
